<svg width="48" height="48" viewBox="0 0 48 48" fill="none" xmlns="http://www.w3.org/2000/svg">
<path d="M24 43.9995C22.9 43.9995 21.9583 43.6078 21.175 42.8245C20.3917 42.0412 20 41.0995 20 39.9995H28C28 41.0995 27.6083 42.0412 26.825 42.8245C26.0417 43.6078 25.1 43.9995 24 43.9995Z" fill="#E3E3E3"/>
<path d="M8 37.9995V34.9995H12V19.7995C12 16.9995 12.825 14.4912 14.475 12.2745C16.125 10.0578 18.3 8.66618 21 8.09951V6.99951C21 6.16618 21.2917 5.45785 21.875 4.87451C22.4583 4.29118 23.1667 3.99951 24 3.99951C24.764 3.99951 25.4133 4.24118 25.948 4.72451C26.4827 5.20785 26.8167 5.79951 26.95 6.49951C26.55 7.16618 26.2333 7.87451 26 8.62451C25.7667 9.37451 25.6167 10.1495 25.55 10.9495C25.2833 10.8828 25.0287 10.8412 24.786 10.8245C24.543 10.8078 24.281 10.7995 24 10.7995C21.5 10.7995 19.375 11.6745 17.625 13.4245C15.875 15.1745 15 17.2995 15 19.7995V34.9995H33V20.7995C33.5 20.8995 34 20.9662 34.5 20.9995C35 21.0328 35.5 21.0162 36 20.9495V34.9995H40V37.9995H8Z" fill="#E3E3E3"/>
<path d="M31.15 15.3935C30.0834 14.3228 29.55 13.0228 29.55 11.4935C29.55 9.96418 30.0854 8.66618 31.156 7.59951C32.2267 6.53285 33.5267 5.99951 35.056 5.99951C36.5854 5.99951 37.8834 6.53485 38.95 7.60551C40.0167 8.67618 40.55 9.97618 40.55 11.5055C40.55 13.0348 40.0147 14.3328 38.944 15.3995C37.8734 16.4662 36.5734 16.9995 35.044 16.9995C33.5147 16.9995 32.2167 16.4642 31.15 15.3935Z" fill="#E3E3E3"/>
<path d="M31.15 15.3935C30.0834 14.3228 29.55 13.0228 29.55 11.4935C29.55 9.96418 30.0854 8.66618 31.156 7.59951C32.2267 6.53285 33.5267 5.99951 35.056 5.99951C36.5854 5.99951 37.8834 6.53485 38.95 7.60551C40.0167 8.67618 40.55 9.97618 40.55 11.5055C40.55 13.0348 40.0147 14.3328 38.944 15.3995C37.8734 16.4662 36.5734 16.9995 35.044 16.9995C33.5147 16.9995 32.2167 16.4642 31.15 15.3935Z" fill="#E3E3E3"/>
<path d="M31.15 15.3935C30.0834 14.3228 29.55 13.0228 29.55 11.4935C29.55 9.96418 30.0854 8.66618 31.156 7.59951C32.2267 6.53285 33.5267 5.99951 35.056 5.99951C36.5854 5.99951 37.8834 6.53485 38.95 7.60551C40.0167 8.67618 40.55 9.97618 40.55 11.5055C40.55 13.0348 40.0147 14.3328 38.944 15.3995C37.8734 16.4662 36.5734 16.9995 35.044 16.9995C33.5147 16.9995 32.2167 16.4642 31.15 15.3935Z" fill="#B00000"/>
</svg>
